<mxfile host="app.diagrams.net" agent="Mozilla/5.0 (Windows NT 10.0; Win64; x64) AppleWebKit/537.36 (KHTML, like Gecko) Chrome/137.0.0.0 Safari/537.36 OPR/121.0.0.0" version="28.2.5">
  <diagram name="PÃ¡gina-1" id="2rj19UhDSFJnFfgUXsGi">
    <mxGraphModel grid="1" page="1" gridSize="10" guides="1" tooltips="1" connect="1" arrows="1" fold="1" pageScale="1" pageWidth="827" pageHeight="1169" math="0" shadow="0">
      <root>
        <mxCell id="0" />
        <mxCell id="1" parent="0" />
        <mxCell id="AyxYlHVRZTqRhhLJ_Fwl-90" value="Usuario" style="shape=umlActor;verticalLabelPosition=bottom;verticalAlign=top;html=1;labelPosition=center;align=center;" vertex="1" parent="1">
          <mxGeometry x="670" y="280" width="30" height="60" as="geometry" />
        </mxCell>
        <mxCell id="AyxYlHVRZTqRhhLJ_Fwl-91" value="V_seach(search-bar.tsx)" style="html=1;whiteSpace=wrap;fillColor=#ffe6cc;strokeColor=#d79b00;" vertex="1" parent="1">
          <mxGeometry x="770" y="285" width="110" height="50" as="geometry" />
        </mxCell>
        <mxCell id="AyxYlHVRZTqRhhLJ_Fwl-93" value="" style="endArrow=none;dashed=1;html=1;rounded=0;" edge="1" parent="1">
          <mxGeometry width="50" height="50" relative="1" as="geometry">
            <mxPoint x="690" y="810" as="sourcePoint" />
            <mxPoint x="690" y="360" as="targetPoint" />
          </mxGeometry>
        </mxCell>
        <mxCell id="AyxYlHVRZTqRhhLJ_Fwl-94" value="" style="endArrow=none;dashed=1;html=1;rounded=0;entryX=0.5;entryY=1;entryDx=0;entryDy=0;" edge="1" parent="1" target="AyxYlHVRZTqRhhLJ_Fwl-91">
          <mxGeometry width="50" height="50" relative="1" as="geometry">
            <mxPoint x="825" y="810" as="sourcePoint" />
            <mxPoint x="870" y="420" as="targetPoint" />
          </mxGeometry>
        </mxCell>
        <mxCell id="AyxYlHVRZTqRhhLJ_Fwl-95" value="" style="endArrow=classic;html=1;rounded=0;" edge="1" parent="1">
          <mxGeometry width="50" height="50" relative="1" as="geometry">
            <mxPoint x="690" y="430" as="sourcePoint" />
            <mxPoint x="820" y="430" as="targetPoint" />
          </mxGeometry>
        </mxCell>
        <mxCell id="AyxYlHVRZTqRhhLJ_Fwl-96" value="Escribe &quot;cam &quot; en campo de busqueda&amp;nbsp;" style="text;html=1;align=center;verticalAlign=middle;whiteSpace=wrap;rounded=0;" vertex="1" parent="1">
          <mxGeometry x="720" y="390" width="80" height="30" as="geometry" />
        </mxCell>
        <mxCell id="AyxYlHVRZTqRhhLJ_Fwl-97" value="" style="endArrow=none;dashed=1;html=1;rounded=0;entryX=0.5;entryY=1;entryDx=0;entryDy=0;" edge="1" parent="1">
          <mxGeometry width="50" height="50" relative="1" as="geometry">
            <mxPoint x="1016" y="810" as="sourcePoint" />
            <mxPoint x="1015" y="335" as="targetPoint" />
          </mxGeometry>
        </mxCell>
        <mxCell id="AyxYlHVRZTqRhhLJ_Fwl-99" value="&lt;font size=&quot;1&quot;&gt;setQuery(&quot;cam&quot;) con debounce 300ms&lt;/font&gt;" style="html=1;verticalAlign=bottom;endArrow=block;curved=0;rounded=0;" edge="1" parent="1">
          <mxGeometry width="80" relative="1" as="geometry">
            <mxPoint x="830" y="460" as="sourcePoint" />
            <mxPoint x="1010" y="460" as="targetPoint" />
            <mxPoint as="offset" />
          </mxGeometry>
        </mxCell>
        <mxCell id="AyxYlHVRZTqRhhLJ_Fwl-102" value="" style="endArrow=none;dashed=1;html=1;rounded=0;entryX=0.5;entryY=1;entryDx=0;entryDy=0;" edge="1" parent="1">
          <mxGeometry width="50" height="50" relative="1" as="geometry">
            <mxPoint x="1564.52" y="810" as="sourcePoint" />
            <mxPoint x="1564.52" y="335" as="targetPoint" />
          </mxGeometry>
        </mxCell>
        <mxCell id="AyxYlHVRZTqRhhLJ_Fwl-103" value="products" style="html=1;whiteSpace=wrap;fillColor=#d5e8d4;strokeColor=#82b366;" vertex="1" parent="1">
          <mxGeometry x="1510" y="280" width="110" height="50" as="geometry" />
        </mxCell>
        <mxCell id="AyxYlHVRZTqRhhLJ_Fwl-110" value="retorna autosugerencia de productos[Camarones ]" style="html=1;verticalAlign=bottom;endArrow=open;dashed=1;endSize=8;curved=0;rounded=0;" edge="1" parent="1">
          <mxGeometry relative="1" as="geometry">
            <mxPoint x="1570" y="560" as="sourcePoint" />
            <mxPoint x="1180" y="560" as="targetPoint" />
          </mxGeometry>
        </mxCell>
        <mxCell id="AyxYlHVRZTqRhhLJ_Fwl-113" value="C_search&lt;br&gt;(route.ts)" style="html=1;whiteSpace=wrap;fillColor=#e1d5e7;strokeColor=#9673a6;" vertex="1" parent="1">
          <mxGeometry x="1131" y="280" width="110" height="50" as="geometry" />
        </mxCell>
        <mxCell id="AyxYlHVRZTqRhhLJ_Fwl-124" value="" style="endArrow=none;dashed=1;html=1;rounded=0;entryX=0.5;entryY=1;entryDx=0;entryDy=0;" edge="1" parent="1">
          <mxGeometry width="50" height="50" relative="1" as="geometry">
            <mxPoint x="1186.5" y="805" as="sourcePoint" />
            <mxPoint x="1185.5" y="330" as="targetPoint" />
          </mxGeometry>
        </mxCell>
        <mxCell id="AyxYlHVRZTqRhhLJ_Fwl-125" value="GEt /api/products/search" style="html=1;verticalAlign=bottom;endArrow=block;curved=0;rounded=0;" edge="1" parent="1">
          <mxGeometry width="80" relative="1" as="geometry">
            <mxPoint x="1010" y="480" as="sourcePoint" />
            <mxPoint x="1190" y="480" as="targetPoint" />
            <mxPoint as="offset" />
          </mxGeometry>
        </mxCell>
        <mxCell id="AyxYlHVRZTqRhhLJ_Fwl-126" value="SELECT name FROM products WHERE name LIKE&#39;cam%&#39;" style="html=1;verticalAlign=bottom;endArrow=block;curved=0;rounded=0;" edge="1" parent="1">
          <mxGeometry width="80" relative="1" as="geometry">
            <mxPoint x="1180" y="500" as="sourcePoint" />
            <mxPoint x="1570" y="500" as="targetPoint" />
            <mxPoint as="offset" />
          </mxGeometry>
        </mxCell>
        <mxCell id="AyxYlHVRZTqRhhLJ_Fwl-127" value="Sugerencias de productos" style="html=1;verticalAlign=bottom;endArrow=open;dashed=1;endSize=8;curved=0;rounded=0;" edge="1" parent="1">
          <mxGeometry relative="1" as="geometry">
            <mxPoint x="1190" y="590" as="sourcePoint" />
            <mxPoint x="1020" y="590" as="targetPoint" />
          </mxGeometry>
        </mxCell>
        <mxCell id="AyxYlHVRZTqRhhLJ_Fwl-130" value="C_hooks&lt;br&gt;(use-search-suggestions.ts)" style="html=1;whiteSpace=wrap;fillColor=#e1d5e7;strokeColor=#9673a6;" vertex="1" parent="1">
          <mxGeometry x="960" y="280" width="110" height="50" as="geometry" />
        </mxCell>
        <mxCell id="AyxYlHVRZTqRhhLJ_Fwl-131" value="Actualiza estado de sugerencias" style="html=1;verticalAlign=bottom;endArrow=open;dashed=1;endSize=8;curved=0;rounded=0;" edge="1" parent="1">
          <mxGeometry relative="1" as="geometry">
            <mxPoint x="1010" y="630" as="sourcePoint" />
            <mxPoint x="827" y="630" as="targetPoint" />
          </mxGeometry>
        </mxCell>
        <mxCell id="AyxYlHVRZTqRhhLJ_Fwl-132" value="muestra dropdown con:&amp;nbsp;&lt;div&gt;camarones&amp;nbsp;&lt;/div&gt;" style="html=1;verticalAlign=bottom;endArrow=open;dashed=1;endSize=8;curved=0;rounded=0;" edge="1" parent="1">
          <mxGeometry relative="1" as="geometry">
            <mxPoint x="820" y="650" as="sourcePoint" />
            <mxPoint x="690" y="650" as="targetPoint" />
          </mxGeometry>
        </mxCell>
      </root>
    </mxGraphModel>
  </diagram>
</mxfile>
